name processed_emg_signals												
nRows=132												
nColumns=7												
 												
endheader												
time	RGLTMED	RRF	RADDLONG	RST	RTA	RGM						
0	0.036362738	0.010375643	0.014411641	0.003929304	0.057586322	0.291024664						
0.001	0.038114212	0.010866749	0.015160226	0.004620698	0.059948548	0.300409205						
0.002	0.039860158	0.011362508	0.015916588	0.005313814	0.062324486	0.309799148						
0.003	0.041599038	0.01186265	0.016680384	0.006008245	0.064712396	0.319187367						
0.004	0.043329318	0.012366903	0.017451259	0.006703583	0.067110507	0.328566688						
0.005	0.045049465	0.012874989	0.018228858	0.007399418	0.069517017	0.337929899						
0.006	0.046757953	0.013386631	0.019012818	0.008095343	0.071930099	0.347269756						
0.007	0.048453263	0.013901547	0.019802774	0.008790948	0.074347899	0.356579001						
0.008	0.050133889	0.014419454	0.020598356	0.009485828	0.076768538	0.365850367						
0.009	0.051798336	0.014940068	0.021399193	0.010179578	0.079190118	0.37507659						
0.01	0.053445127	0.015463104	0.022204909	0.010871795	0.081610723	0.384250421						
0.011	0.055072802	0.015988278	0.023015129	0.011562081	0.084028419	0.393364635						
0.012	0.056679923	0.016515303	0.023829475	0.012250039	0.08644126	0.402412043						
0.013	0.058265074	0.017043895	0.024647569	0.012935277	0.088847286	0.411385501						
0.014	0.059826866	0.017573771	0.025469033	0.013617409	0.09124453	0.420277924						
0.015	0.061363937	0.018104649	0.026293488	0.014296053	0.093631017	0.42908229						
0.016	0.062874956	0.018636248	0.027120558	0.014970832	0.096004771	0.437791659						
0.017	0.064358623	0.01916829	0.027949867	0.015641377	0.09836381	0.446399174						
0.018	0.065813672	0.0197005	0.028781042	0.016307324	0.100706155	0.454898079						
0.019	0.067238874	0.020232606	0.02961371	0.016968316	0.10302983	0.463281721						
0.02	0.068633038	0.020764338	0.030447503	0.017624004	0.105332864	0.471543566						
0.021	0.06999501	0.021295432	0.031282057	0.018274047	0.107613296	0.479677205						
0.022	0.071323682	0.021825627	0.032117009	0.018918111	0.109869172	0.487676363						
0.023	0.072617984	0.022354665	0.032952001	0.019555873	0.112098553	0.495534908						
0.024	0.073876894	0.022882294	0.03378668	0.020187015	0.114299516	0.503246857						
0.025	0.075099432	0.023408268	0.034620698	0.020811232	0.116470152	0.510806387						
0.026	0.076284669	0.023932344	0.035453712	0.021428226	0.118608575	0.518207841						
0.027	0.077431722	0.024454286	0.036285382	0.022037711	0.12071292	0.525445735						
0.028	0.078539756	0.024973862	0.037115378	0.022639408	0.122781344	0.532514762						
0.029	0.079607989	0.025490849	0.037943371	0.023233052	0.124812032	0.539409802						
0.03	0.080635688	0.026005026	0.038769043	0.023818385	0.126803199	0.546125925						
0.031	0.081622172	0.026516182	0.039592078	0.024395161	0.128753086	0.552658399						
0.032	0.082566815	0.02702411	0.04041217	0.024963145	0.130659971	0.559002689						
0.033	0.08346904	0.02752861	0.041229017	0.025522114	0.132522163	0.565154468						
0.034	0.084328326	0.028029491	0.042042327	0.026071854	0.134338007	0.571109618						
0.035	0.085144207	0.028526565	0.042851812	0.026612163	0.136105889	0.576864229						
0.036	0.085916269	0.029019654	0.043657191	0.02714285	0.137824233	0.582414611						
0.037	0.086644154	0.029508586	0.044458194	0.027663737	0.139491502	0.587757287						
0.038	0.087327557	0.029993196	0.045254554	0.028174655	0.141106207	0.592889003						
0.039	0.08796623	0.030473326	0.046046012	0.028675448	0.1426669	0.597806722						
0.04	0.088559979	0.030948825	0.046832319	0.02916597	0.14417218	0.602507632						
0.041	0.089108662	0.031419552	0.04761323	0.029646088	0.145620695	0.60698914						
0.042	0.089612195	0.031885369	0.048388509	0.030115678	0.147011141	0.61124888						
0.043	0.090070546	0.032346148	0.049157927	0.030574631	0.148342265	0.615284705						
0.044	0.090483735	0.032801768	0.049921261	0.031022845	0.149612866	0.619094692						
0.045	0.090851839	0.033252114	0.050678297	0.031460232	0.150821798	0.62267714						
0.046	0.091174985	0.03369708	0.051428827	0.031886713	0.151967966	0.626030567						
0.047	0.091453352	0.034136566	0.052172649	0.032302222	0.153050334	0.629153713						
0.048	0.091687172	0.034570478	0.05290957	0.032706701	0.154067922	0.632045533						
0.049	0.091876725	0.034998732	0.053639403	0.033100105	0.155019808	0.634705199						
0.05	0.092022343	0.035421249	0.054361965	0.033482399	0.155905129	0.637132097						
0.051	0.092124407	0.035837956	0.055077083	0.033853556	0.156723082	0.639325824						
0.052	0.092183345	0.036248788	0.055784588	0.034213562	0.157472928	0.641286187						
0.053	0.092199631	0.036653687	0.056484319	0.034562411	0.158153986	0.643013196						
0.054	0.092173786	0.0370526	0.05717612	0.034900106	0.158765643	0.644507068						
0.055	0.092106377	0.037445481	0.057859841	0.035226661	0.159307347	0.645768216						
0.056	0.091998011	0.037832292	0.058535337	0.035542099	0.159778611	0.646797252						
0.057	0.091849341	0.038212999	0.059202471	0.03584645	0.160179015	0.647594978						
0.058	0.091661058	0.038587573	0.059861108	0.036139753	0.160508206	0.648162387						
0.059	0.091433893	0.038955993	0.060511121	0.036422057	0.160765897	0.648500653						
0.06	0.091168617	0.039318243	0.061152388	0.036693418	0.160951871	0.648611135						
0.061	0.090866035	0.039674313	0.061784789	0.036953898	0.161065976	0.648495365						
0.062	0.090526989	0.040024196	0.062408214	0.03720357	0.161108134	0.648155046						
0.063	0.090152354	0.040367893	0.063022552	0.03744251	0.161078334	0.64759205						
0.064	0.089743036	0.040705408	0.063627701	0.037670804	0.160976635	0.64680841						
0.065	0.089299973	0.041036752	0.064223561	0.037888542	0.160803169	0.645806316						
0.066	0.08882413	0.041361937	0.064810038	0.038095823	0.160558138	0.644588114						
0.067	0.088316501	0.041680984	0.06538704	0.038292749	0.160241815	0.643156293						
0.068	0.087778103	0.041993915	0.06595448	0.03847943	0.159854548	0.64151349						
0.069	0.08720998	0.042300757	0.066512277	0.038655979	0.159396756	0.639662478						
0.07	0.086613195	0.042601541	0.067060349	0.038822515	0.158868929	0.637606163						
0.071	0.085988833	0.042896303	0.067598622	0.038979162	0.158271633	0.635347582						
0.072	0.085337997	0.043185082	0.068127024	0.039126048	0.157605507	0.632889894						
0.073	0.084661807	0.04346792	0.068645486	0.039263304	0.156871262	0.630236378						
0.074	0.083961398	0.043744863	0.069153943	0.039391066	0.156069685	0.627390428						
0.075	0.083237921	0.044015959	0.069652333	0.039509473	0.155201637	0.624355547						
0.076	0.082492535	0.044281262	0.070140596	0.039618666	0.154268052	0.621135342						
0.077	0.081726412	0.044540827	0.070618677	0.039718791	0.153269939	0.617733525						
0.078	0.080940732	0.04479471	0.071086524	0.039809995	0.152208383	0.6141539						
0.079	0.080136681	0.045042975	0.071544085	0.039892426	0.151084542	0.610400363						
0.08	0.079315452	0.045285683	0.071991313	0.039966237	0.14989965	0.606476901						
0.081	0.07847824	0.045522901	0.072428164	0.04003158	0.148655016	0.60238758						
0.082	0.077626243	0.045754698	0.072854596	0.040088611	0.147352022	0.598136547						
0.083	0.076760661	0.045981144	0.073270569	0.040137484	0.145992126	0.593728023						
0.084	0.07588269	0.046202313	0.073676047	0.040178356	0.144576861	0.589166299						
0.085	0.074993526	0.046418278	0.074070994	0.040211385	0.143107834	0.584455733						
0.086	0.07409436	0.046629118	0.074455379	0.040236729	0.141586726	0.579600744						
0.087	0.073186378	0.046834912	0.074829171	0.040254545	0.140015293	0.574605811						
0.088	0.07227076	0.04703574	0.075192343	0.040264992	0.138395365	0.569475464						
0.089	0.071348677	0.047231685	0.075544869	0.040268228	0.136728843	0.564214286						
0.09	0.07042129	0.047422832	0.075886725	0.040264411	0.135017704	0.558826902						
0.091	0.069489751	0.047609266	0.076217891	0.040253697	0.133263995	0.553317982						
0.092	0.068555197	0.047791076	0.076538346	0.040236245	0.131469837	0.547692231						
0.093	0.067618756	0.04796835	0.076848072	0.04021221	0.12963742	0.541954388						
0.094	0.066681537	0.048141178	0.077147055	0.040181746	0.127769008	0.536109223						
0.095	0.065744636	0.048309653	0.077435281	0.040145008	0.125866932	0.530161527						
0.096	0.064809132	0.048473868	0.077712737	0.040102148	0.123933593	0.524116115						
0.097	0.063876085	0.048633917	0.077979415	0.040053317	0.12197146	0.517977818						
0.098	0.062946538	0.048789895	0.078235304	0.039998666	0.119983068	0.511751481						
0.099	0.062021511	0.0489419	0.0784804	0.039938342	0.117971021	0.505441955						
0.1	0.061102005	0.049090029	0.078714698	0.039872493	0.115937984	0.499054097						
0.101	0.060189001	0.04923438	0.078938195	0.039801263	0.113886687	0.492592765						
0.102	0.059283453	0.049375054	0.07915089	0.039724796	0.111819923	0.486062813						
0.103	0.058386295	0.04951215	0.079352786	0.039643232	0.109740544	0.479469088						
0.104	0.057498435	0.04964577	0.079543884	0.039556712	0.107651462	0.472816424						
0.105	0.056620757	0.049776015	0.07972419	0.039465372	0.105555645	0.466109643						
0.106	0.055754117	0.049902988	0.079893711	0.039369348	0.103456116	0.459353544						
0.107	0.054899348	0.050026793	0.080052456	0.039268773	0.101355954	0.452552907						
0.108	0.054057253	0.050147531	0.080200437	0.03916378	0.099258287	0.445712481						
0.109	0.053228608	0.050265308	0.080337667	0.039054497	0.097166293	0.43883699						
0.11	0.052414161	0.050380227	0.080464162	0.038941052	0.095083197	0.431931118						
0.111	0.051614633	0.050492392	0.08057994	0.038823571	0.093012268	0.424999516						
0.112	0.050830713	0.050601908	0.080685022	0.038702178	0.090956818	0.418046792						
0.113	0.050063063	0.050708879	0.08077943	0.038576994	0.088920199	0.411077507						
0.114	0.049312313	0.05081341	0.08086319	0.038448139	0.086905799	0.404096177						
0.115	0.048579065	0.050915603	0.080936332	0.038315733	0.084917041	0.397107265						
0.116	0.047863889	0.051015564	0.080998886	0.038179891	0.082957378	0.390115179						
0.117	0.047167325	0.051113394	0.081050887	0.038040729	0.081030293	0.383124268						
0.118	0.046489883	0.051209197	0.081092372	0.037898362	0.079139293	0.376138819						
0.119	0.04583204	0.051303075	0.081123381	0.037752901	0.077287909	0.369163057						
0.12	0.045194245	0.051395128	0.081143959	0.037604458	0.075479689	0.362201137						
0.121	0.044576913	0.051485456	0.081154154	0.037453145	0.073718197	0.355257144						
0.122	0.043980429	0.051574159	0.081154016	0.03729907	0.07200701	0.348335091						
0.123	0.043405148	0.051661334	0.081143601	0.037142343	0.070349712	0.341438913						
0.124	0.042851393	0.051747077	0.081122968	0.036983073	0.068749895	0.334572467						
0.125	0.042319457	0.051831483	0.081092178	0.036821367	0.067211148	0.327739531						
0.126	0.041809601	0.051914645	0.081051301	0.036657333	0.065737061	0.320943796						
0.127	0.041322057	0.051996655	0.081000407	0.03649108	0.064331215	0.31418887						
0.128	0.040857026	0.052077601	0.080939573	0.036322716	0.062997183	0.307478271						
0.129	0.040414679	0.052157571	0.080868879	0.036152348	0.061738523	0.300815428						
0.13	0.039995158	0.052236649	0.08078841	0.035980087	0.060558773	0.294203679						
0.131	0.039598575	0.052314919	0.080698259	0.035806041	0.05946145	0.287646267						
